# xmcd
#
# Track frame offsets:
#	150
#	12077
#	31702
#	41290
#	57527
#	69374
#	80169
#	88088
#	102474
#	118413
#	129543
#	138606
#	154263
#	168036
#	181274
#	193846
#	205058
#	215271
#	225566
#	250602
#	271955
#	284681
#	296142
#	309480
#	321628
#
# Disc length: 4483 seconds
#
# Revision: 3
# Processed by: cddbd v1.5.1PL2 Copyright (c) Steve Scherf et al.
# Submitted via: EasyCDDAExtractor 9.1.3.1
#
DISCID=76118119
DTITLE=Johnny Cash - Personal File, Disc 1
DYEAR=2006
DGENRE=Country
TTITLE0=The Letter Edged In Black
TTITLE1=There's A Mother Always Waiting At Home
TTITLE2=The Engineer's Dying Child
TTITLE3=My Mother Was A Lady
TTITLE4=The Winding Stream
TTITLE5=Far Away Places
TTITLE6=Galway Bay
TTITLE7=When I Stop Dreaming
TTITLE8=Drink To Me Only With Thine Eyes
TTITLE9=I'll Take You Home Again Kathleen
TTITLE10=Missouri Waltz
TTITLE11=Louisiana Man
TTITLE12=Paradise
TTITLE13=I Don't Believe You Wanted To Leave
TTITLE14=Jim, I Wore A Tie Today
TTITLE15=Saginaw, Michigan
TTITLE16=When It's Springtime In Alaska (It's Forty Below)
TTITLE17=Girl In Saskatoon
TTITLE18=The Cremation Of Sam Mcgee
TTITLE19=Tiger Whitehead
TTITLE20=It's All Over
TTITLE21=A Fast Song
TTITLE22=Virgie
TTITLE23=I Wanted So
TTITLE24=It Takes One To Know Me
EXTD=SONY BMG Music Entertainment\n8 2796 94265 2
EXTT0=
EXTT1=
EXTT2=
EXTT3=
EXTT4=
EXTT5=
EXTT6=
EXTT7=
EXTT8=
EXTT9=
EXTT10=
EXTT11=
EXTT12=
EXTT13=
EXTT14=
EXTT15=
EXTT16=
EXTT17=
EXTT18=
EXTT19=
EXTT20=
EXTT21=
EXTT22=
EXTT23=
EXTT24=
PLAYORDER=
